ModelForces
version=1
nRows=4
nColumns=155
inDegrees=no

This file contains the forces exerted on a model during a simulation.

A force is a generalized force, meaning that it can be either a force (N) or a torque (Nm).

Units are S.I. units (second, meters, Newtons, ...)
Angles are in degrees.

endheader
time	glut_med1_r	glut_med2_r	glut_med3_r	glut_min1_r	glut_min2_r	glut_min3_r	semimem_r	semiten_r	bifemlh_r	bifemsh_r	sar_r	add_long_r	add_brev_r	add_mag1_r	add_mag2_r	add_mag3_r	tfl_r	pect_r	grac_r	glut_max1_r	glut_max2_r	glut_max3_r	iliacus_r	psoas_r	quad_fem_r	gem_r	peri_r	rect_fem_r	vas_med_r	vas_int_r	vas_lat_r	med_gas_r	lat_gas_r	soleus_r	tib_post_r	flex_dig_r	flex_hal_r	tib_ant_r	per_brev_r	per_long_r	per_tert_r	ext_dig_r	ext_hal_r	glut_med1_l	glut_med2_l	glut_med3_l	glut_min1_l	glut_min2_l	glut_min3_l	semimem_l	semiten_l	bifemlh_l	bifemsh_l	sar_l	add_long_l	add_brev_l	add_mag1_l	add_mag2_l	add_mag3_l	tfl_l	pect_l	grac_l	glut_max1_l	glut_max2_l	glut_max3_l	iliacus_l	psoas_l	quad_fem_l	gem_l	peri_l	rect_fem_l	vas_med_l	vas_int_l	vas_lat_l	med_gas_l	lat_gas_l	soleus_l	tib_post_l	flex_dig_l	flex_hal_l	tib_ant_l	per_brev_l	per_long_l	per_tert_l	ext_dig_l	ext_hal_l	ercspn_r	ercspn_l	intobl_r	intobl_l	extobl_r	extobl_l	femur_lat_meniscii_r.femur_lat_r.force.X	femur_lat_meniscii_r.femur_lat_r.force.Y	femur_lat_meniscii_r.femur_lat_r.force.Z	femur_lat_meniscii_r.femur_lat_r.torque.X	femur_lat_meniscii_r.femur_lat_r.torque.Y	femur_lat_meniscii_r.femur_lat_r.torque.Z	femur_lat_meniscii_r.meniscus_lat_r.force.X	femur_lat_meniscii_r.meniscus_lat_r.force.Y	femur_lat_meniscii_r.meniscus_lat_r.force.Z	femur_lat_meniscii_r.meniscus_lat_r.torque.X	femur_lat_meniscii_r.meniscus_lat_r.torque.Y	femur_lat_meniscii_r.meniscus_lat_r.torque.Z	femur_med_meniscii_r.femur_med_r.force.X	femur_med_meniscii_r.femur_med_r.force.Y	femur_med_meniscii_r.femur_med_r.force.Z	femur_med_meniscii_r.femur_med_r.torque.X	femur_med_meniscii_r.femur_med_r.torque.Y	femur_med_meniscii_r.femur_med_r.torque.Z	femur_med_meniscii_r.meniscus_med_r.force.X	femur_med_meniscii_r.meniscus_med_r.force.Y	femur_med_meniscii_r.meniscus_med_r.force.Z	femur_med_meniscii_r.meniscus_med_r.torque.X	femur_med_meniscii_r.meniscus_med_r.torque.Y	femur_med_meniscii_r.meniscus_med_r.torque.Z	femur_med_tibia_r.tibia_upper_r.force.X	femur_med_tibia_r.tibia_upper_r.force.Y	femur_med_tibia_r.tibia_upper_r.force.Z	femur_med_tibia_r.tibia_upper_r.torque.X	femur_med_tibia_r.tibia_upper_r.torque.Y	femur_med_tibia_r.tibia_upper_r.torque.Z	femur_med_tibia_r.femur_med_r.force.X	femur_med_tibia_r.femur_med_r.force.Y	femur_med_tibia_r.femur_med_r.force.Z	femur_med_tibia_r.femur_med_r.torque.X	femur_med_tibia_r.femur_med_r.torque.Y	femur_med_tibia_r.femur_med_r.torque.Z	femur_lat_tibia_r.tibia_upper_r.force.X	femur_lat_tibia_r.tibia_upper_r.force.Y	femur_lat_tibia_r.tibia_upper_r.force.Z	femur_lat_tibia_r.tibia_upper_r.torque.X	femur_lat_tibia_r.tibia_upper_r.torque.Y	femur_lat_tibia_r.tibia_upper_r.torque.Z	femur_lat_tibia_r.femur_lat_r.force.X	femur_lat_tibia_r.femur_lat_r.force.Y	femur_lat_tibia_r.femur_lat_r.force.Z	femur_lat_tibia_r.femur_lat_r.torque.X	femur_lat_tibia_r.femur_lat_r.torque.Y	femur_lat_tibia_r.femur_lat_r.torque.Z	aACL_R	pACL_R	aPCL_R	pPCL_R	aMCL_R	mMCL_R	pMCL_R	aLCL_R	mLCL_R	pLCL_R	aPCL_L	pPCL_L	aMCL_L	aLCL_L
      0.16566348	     11.37670540	      8.30613553	      8.93314252	      3.83580413	      4.45980407	      4.82327966	      0.00000000	    168.05474348	    134.13682895	    291.41812730	    131.23446388	      8.26626175	      5.95372857	      3.70360952	      3.62168893	      6.10249361	      4.94624192	      3.23762577	    100.67762566	      5.36304832	      8.15847800	      6.13051736	     27.47436546	     18.44616470	      5.27411672	      3.64398577	      6.22971989	     54.82248285	     31.10767959	     33.20879063	     44.75729999	      0.00000000	      0.00000000	      0.00000000	      0.00000000	      0.00000000	      0.00000000	     34.41901010	      2.40230386	      2.99899943	     15.96548044	     43.01112266	     11.02032643	     11.37670540	      8.30613553	      8.93314252	      3.83580413	      4.45980407	      4.82327966	      0.00000000	      6.15337823	     12.14917290	     10.49739169	      2.18866757	      8.26626175	      5.95372857	      3.70360952	      3.62168893	      6.10249361	      5.40539966	      3.23762577	      2.25922571	      5.36304832	      8.15847800	      6.13051736	     27.47436546	     18.44616470	      5.27411672	      3.64398577	      6.22971989	     16.91653950	      0.00000000	      0.00000000	      0.00000000	     21.14183282	      9.98484522	     50.56648699	     50.85489631	      5.42315210	      4.85172320	     13.16759106	      7.04162670	     18.10927103	      2.85208871	      8.78066123	      2.75926850	     36.10486175	     36.10486175	     13.41032671	     13.41032671	     30.78023641	     30.78023641	     95.35572947	    162.33616533	     16.57657778	    -10.55183447	      2.29162071	     37.34290590	    -95.35572947	   -162.33616533	    -16.57657778	      4.39757595	     -2.78356317	      2.87672639	     22.67837797	     19.34552734	     10.93056664	     -3.97010613	     -0.51587859	      9.10310517	    -22.67837797	    -19.34552734	    -10.93056664	     -0.22332897	      0.25352366	      0.06162563	   -790.36043720	   -701.97151923	    224.05751938	    -16.12953656	     17.74244675	     -1.33864706	    790.36043720	    701.97151923	   -224.05751938	    103.78275638	    -14.30156927	    321.31467522	      0.00000000	      0.00000000	      0.00000000	      0.00000000	      0.00000000	      0.00000000	      0.00000000	      0.00000000	      0.00000000	      0.00000000	      0.00000000	      0.00000000	     -4.86175200	      0.00000000	    593.13798855	    384.44519542	      0.00000000	      0.00000000	      0.00000000	      0.00000000	      0.00000000	      0.00000000	      0.00000000	      0.00000000	      0.00000001	      0.00000000
      0.16571509	     11.37423437	      8.30433875	      8.93118694	      3.83500839	      4.45893345	      4.82216760	      0.00000000	    168.05096635	    134.14717507	    291.42008479	    131.22658968	      8.26445301	      5.95250496	      3.71207074	      3.62089121	      6.10104813	      4.94432056	      3.23694932	    100.66888517	      5.36188361	      8.15670220	      6.12916222	     27.47105486	     18.44238936	      5.27299877	      3.64343977	      6.22915000	     54.86675489	     31.10573995	     33.20681825	     44.75420834	      0.00000000	      0.00000000	      0.00000000	      0.00000000	      0.00000000	      0.00000000	     34.42688831	      2.40083721	      2.99938405	     18.91414896	     43.04557492	     11.02843575	     11.37423437	      8.30433875	      8.93118694	      3.83500839	      4.45893345	      4.82216760	      0.00000000	      6.15196259	     12.14641816	     10.49516402	      2.18821565	      8.26445301	      5.95250496	      3.71207074	      3.62089121	      6.10104813	      5.40450885	      3.23694932	      2.25875101	      5.36188361	      8.15670220	      6.12916222	     27.47105486	     18.44238936	      5.27299877	      3.64343977	      6.22915000	     16.91236212	      0.00000000	      0.00000000	      0.00000000	     21.14051644	      9.98404453	     50.55634742	     50.84958211	      5.42197241	      4.85064239	     13.16451570	      7.03988566	     18.10600496	      2.85150711	      8.77849969	      2.75863040	     36.09735495	     36.09735495	     13.40731392	     13.40731392	     30.77750537	     30.77750537	     95.43857164	    162.13251315	     16.69706009	    -10.59749430	      2.29529000	     37.37813483	    -95.43857164	   -162.13251315	    -16.69706009	      4.39637987	     -2.79010553	      2.87153694	     22.69304656	     19.31459402	     10.91622023	     -3.96516991	     -0.51588245	      9.10877415	    -22.69304656	    -19.31459402	    -10.91622023	     -0.22283720	      0.25368066	      0.06133779	   -790.75013277	   -702.16202643	    223.91905797	    -16.12290447	     17.74483775	     -1.32049682	    790.75013277	    702.16202643	   -223.91905797	    103.72523492	    -14.30599311	    321.46377184	      0.00000000	      0.00000000	      0.00000000	      0.00000000	      0.00000000	      0.00000000	      0.00000000	      0.00000000	      0.00000000	      0.00000000	      0.00000000	      0.00000000	     -4.86774891	      0.00000000	    593.68343179	    384.74095143	      0.00000000	      0.00000000	      0.00000000	      0.00000000	      0.00000000	      0.00000000	      0.00000000	      0.00000000	      0.00000001	      0.00000000
      0.16597312	     11.36189508	      8.29537348	      8.92142938	      3.83103788	      4.45458937	      4.81661874	      0.00000000	    168.03106188	    134.19958769	    291.43519502	    131.18850222	      8.25542813	      5.94639948	      3.75180653	      3.61691095	      6.09383571	      4.93467050	      3.23357407	    100.62586199	      5.35607222	      8.14784170	      6.12240069	     27.45453675	     18.42355254	      5.26742059	      3.64071561	      6.22628528	     55.08898577	     31.09574663	     33.19721145	     44.73949090	      0.00000000	      0.00000000	      0.00000000	      0.00000000	      0.00000000	      0.00000000	     34.46585929	      2.39364028	      3.00140063	     22.23893908	     43.21595062	     11.06833952	     11.36189508	      8.29537348	      8.92142938	      3.83103788	      4.45458937	      4.81661874	      0.00000000	      6.14489921	     12.13266186	     10.48404872	      2.18596069	      8.25542813	      5.94639948	      3.75180653	      3.61691095	      6.09383571	      5.40006393	      3.23357407	      2.25638245	      5.35607222	      8.14784170	      6.12240069	     27.45453675	     18.42355254	      5.26742059	      3.64071561	      6.22628528	     16.89151622	      0.00000000	      0.00000000	      0.00000000	     21.13388704	      9.98002054	     50.50566524	     50.82305218	      5.41606108	      4.84522038	     13.14916430	      7.03119562	     18.08969374	      2.84860522	      8.76776014	      2.75546509	     36.05989821	     36.05989821	     13.39228141	     13.39228141	     30.76387902	     30.76387902	     96.39050848	    162.73360942	     17.14330416	    -10.79958142	      2.32388081	     37.75966827	    -96.39050848	   -162.73360942	    -17.14330416	      4.42700915	     -2.83067347	      2.88172002	     23.41127471	     19.56204637	     10.79741002	     -3.90974107	     -0.53506152	      9.40172610	    -23.41127471	    -19.56204637	    -10.79741002	     -0.23230946	      0.27361307	      0.05286989	   -793.55768979	   -701.01295619	    223.75403146	    -16.07385223	     17.78458446	     -1.31872198	    793.55768979	    701.01295619	   -223.75403146	    103.62223079	    -14.34631283	    322.58650663	      0.00000000	      0.00000000	      0.00000000	      0.00000000	      0.00000000	      0.00000000	      0.00000000	      0.00000000	      0.00000000	      0.00000000	      0.00000000	      0.00000000	     -4.85662240	      0.00000000	    596.39282166	    386.17922487	      0.00000000	      0.00000000	      0.00000000	      0.00000000	      0.00000000	      0.00000000	      0.00000000	      0.00000000	      0.00000001	      0.00000000
      0.16653680	     11.33503246	      8.27589633	      8.90023126	      3.82241143	      4.44515174	      4.80456299	      0.00000000	    167.98920963	    134.33157598	    291.55539902	    131.11555104	      8.23582175	      5.93313435	      3.82532324	      3.60826386	      6.07816654	      4.91332461	      3.22624102	    100.53924860	      5.34344725	      8.12859267	      6.10771169	     27.41865380	     18.38263311	      5.25530165	      3.63479809	      6.21993971	     55.57549927	     31.05953739	     33.17026504	     44.70739505	      0.00000000	      0.00000000	      0.00000000	      0.00000000	      0.00000000	      0.00000000	     34.54921553	      2.37820632	      3.00594289	     23.08608241	     43.56314033	     11.14587106	     11.33503246	      8.27589633	      8.90023126	      3.82241143	      4.44515174	      4.80456299	      0.00000000	      6.12955435	     12.10271229	     10.45990016	      2.18106148	      8.23582175	      5.93313435	      3.82532324	      3.60826386	      6.07816654	      5.39040644	      3.22624102	      2.25123655	      5.34344725	      8.12859267	      6.10771169	     27.41865380	     18.38263311	      5.25530165	      3.63479809	      6.21993971	     16.84621493	      0.00000000	      0.00000000	      0.00000000	     21.11913176	      9.97111207	     50.39504468	     50.76533516	      5.40307203	      4.83327063	     13.11577635	      7.01229980	     18.05417262	      2.84230133	      8.74469174	      2.74869550	     35.97851889	     35.97851889	     13.35962397	     13.35962397	     30.73427858	     30.73427858	     97.30389896	    162.53766980	     17.97613475	    -11.14468094	      2.34838892	     38.11999394	    -97.30389896	   -162.53766980	    -17.97613475	      4.44998527	     -2.87672737	      2.89521330	     23.13667723	     18.94292864	     10.52066040	     -3.81221063	     -0.52564181	      9.28853011	    -23.13667723	    -18.94292864	    -10.52066040	     -0.22456827	      0.26909108	      0.05094755	   -798.26507210	   -699.64910604	    225.57521206	    -16.04683698	     17.91914576	     -1.23807661	    798.26507210	    699.64910604	   -225.57521206	    104.32244772	    -14.43442445	    324.43590609	      0.00000000	      0.00000000	      0.00000000	      0.00000000	      0.00000000	      0.00000000	      0.00000000	      0.00000000	      0.00000000	      0.00000000	      0.00000000	      0.00000000	     -4.72549074	      0.00000000	    602.19055039	    389.05257538	      0.00000000	      0.00000000	      0.00000000	      0.00000000	      0.00000000	      0.00000000	      0.00000000	      0.00000000	      0.00000001	      0.00000000
